<mxfile host="app.diagrams.net" modified="2023-12-11T13:59:11.258Z" agent="Mozilla/5.0 (Windows NT 10.0; Win64; x64) AppleWebKit/537.36 (KHTML, like Gecko) Chrome/120.0.0.0 Safari/537.36" etag="IOBP66CWa3vhP_e2Fe4b" version="22.1.7" type="device">
  <diagram id="C5RBs43oDa-KdzZeNtuy" name="Page-1">
    <mxGraphModel dx="1434" dy="782" grid="1" gridSize="10" guides="1" tooltips="1" connect="1" arrows="1" fold="1" page="1" pageScale="1" pageWidth="827" pageHeight="1169" math="0" shadow="0">
      <root>
        <mxCell id="WIyWlLk6GJQsqaUBKTNV-0" />
        <mxCell id="WIyWlLk6GJQsqaUBKTNV-1" parent="WIyWlLk6GJQsqaUBKTNV-0" />
        <mxCell id="4bqVrAKgck0tM7LBI-FJ-6" value="" style="edgeStyle=orthogonalEdgeStyle;rounded=0;orthogonalLoop=1;jettySize=auto;html=1;" edge="1" parent="WIyWlLk6GJQsqaUBKTNV-1" source="WIyWlLk6GJQsqaUBKTNV-3" target="4bqVrAKgck0tM7LBI-FJ-5">
          <mxGeometry relative="1" as="geometry" />
        </mxCell>
        <mxCell id="WIyWlLk6GJQsqaUBKTNV-3" value="Get today&#39;s date" style="rounded=1;whiteSpace=wrap;html=1;fontSize=12;glass=0;strokeWidth=1;shadow=0;" parent="WIyWlLk6GJQsqaUBKTNV-1" vertex="1">
          <mxGeometry x="170" y="60" width="100" height="20" as="geometry" />
        </mxCell>
        <mxCell id="4bqVrAKgck0tM7LBI-FJ-0" value="End" style="strokeWidth=2;html=1;shape=mxgraph.flowchart.terminator;whiteSpace=wrap;" vertex="1" parent="WIyWlLk6GJQsqaUBKTNV-1">
          <mxGeometry x="200" y="420" width="40" height="30" as="geometry" />
        </mxCell>
        <mxCell id="4bqVrAKgck0tM7LBI-FJ-2" style="edgeStyle=orthogonalEdgeStyle;rounded=0;orthogonalLoop=1;jettySize=auto;html=1;exitX=0.5;exitY=1;exitDx=0;exitDy=0;exitPerimeter=0;entryX=0.5;entryY=0;entryDx=0;entryDy=0;" edge="1" parent="WIyWlLk6GJQsqaUBKTNV-1" source="4bqVrAKgck0tM7LBI-FJ-1" target="WIyWlLk6GJQsqaUBKTNV-3">
          <mxGeometry relative="1" as="geometry" />
        </mxCell>
        <mxCell id="4bqVrAKgck0tM7LBI-FJ-1" value="Start" style="strokeWidth=2;html=1;shape=mxgraph.flowchart.terminator;whiteSpace=wrap;" vertex="1" parent="WIyWlLk6GJQsqaUBKTNV-1">
          <mxGeometry x="197.5" y="10" width="45" height="30" as="geometry" />
        </mxCell>
        <mxCell id="4bqVrAKgck0tM7LBI-FJ-8" value="" style="edgeStyle=orthogonalEdgeStyle;rounded=0;orthogonalLoop=1;jettySize=auto;html=1;" edge="1" parent="WIyWlLk6GJQsqaUBKTNV-1" source="4bqVrAKgck0tM7LBI-FJ-5" target="4bqVrAKgck0tM7LBI-FJ-7">
          <mxGeometry relative="1" as="geometry" />
        </mxCell>
        <mxCell id="4bqVrAKgck0tM7LBI-FJ-5" value="Get the list of important events from the text file" style="rounded=1;whiteSpace=wrap;html=1;glass=0;strokeWidth=1;shadow=0;" vertex="1" parent="WIyWlLk6GJQsqaUBKTNV-1">
          <mxGeometry x="150" y="100" width="140" height="40" as="geometry" />
        </mxCell>
        <mxCell id="4bqVrAKgck0tM7LBI-FJ-10" value="" style="edgeStyle=orthogonalEdgeStyle;rounded=0;orthogonalLoop=1;jettySize=auto;html=1;" edge="1" parent="WIyWlLk6GJQsqaUBKTNV-1" source="4bqVrAKgck0tM7LBI-FJ-7" target="4bqVrAKgck0tM7LBI-FJ-9">
          <mxGeometry relative="1" as="geometry" />
        </mxCell>
        <mxCell id="4bqVrAKgck0tM7LBI-FJ-7" value="Get the event" style="whiteSpace=wrap;html=1;rounded=1;glass=0;strokeWidth=1;shadow=0;" vertex="1" parent="WIyWlLk6GJQsqaUBKTNV-1">
          <mxGeometry x="180" y="160" width="80" height="20" as="geometry" />
        </mxCell>
        <mxCell id="4bqVrAKgck0tM7LBI-FJ-12" value="" style="edgeStyle=orthogonalEdgeStyle;rounded=0;orthogonalLoop=1;jettySize=auto;html=1;" edge="1" parent="WIyWlLk6GJQsqaUBKTNV-1" source="4bqVrAKgck0tM7LBI-FJ-9" target="4bqVrAKgck0tM7LBI-FJ-11">
          <mxGeometry relative="1" as="geometry" />
        </mxCell>
        <mxCell id="4bqVrAKgck0tM7LBI-FJ-9" value="Calculate the number of days until the event" style="whiteSpace=wrap;html=1;rounded=1;glass=0;strokeWidth=1;shadow=0;" vertex="1" parent="WIyWlLk6GJQsqaUBKTNV-1">
          <mxGeometry x="160" y="200" width="120" height="37.5" as="geometry" />
        </mxCell>
        <mxCell id="4bqVrAKgck0tM7LBI-FJ-11" value="Display the result" style="whiteSpace=wrap;html=1;rounded=1;glass=0;strokeWidth=1;shadow=0;" vertex="1" parent="WIyWlLk6GJQsqaUBKTNV-1">
          <mxGeometry x="167.5" y="260" width="105" height="20" as="geometry" />
        </mxCell>
        <mxCell id="4bqVrAKgck0tM7LBI-FJ-23" style="edgeStyle=orthogonalEdgeStyle;rounded=0;orthogonalLoop=1;jettySize=auto;html=1;exitX=1;exitY=0.5;exitDx=0;exitDy=0;exitPerimeter=0;entryX=1;entryY=0.5;entryDx=0;entryDy=0;" edge="1" parent="WIyWlLk6GJQsqaUBKTNV-1" source="4bqVrAKgck0tM7LBI-FJ-15" target="4bqVrAKgck0tM7LBI-FJ-7">
          <mxGeometry relative="1" as="geometry" />
        </mxCell>
        <mxCell id="4bqVrAKgck0tM7LBI-FJ-24" style="edgeStyle=orthogonalEdgeStyle;rounded=0;orthogonalLoop=1;jettySize=auto;html=1;" edge="1" parent="WIyWlLk6GJQsqaUBKTNV-1" source="4bqVrAKgck0tM7LBI-FJ-15">
          <mxGeometry relative="1" as="geometry">
            <mxPoint x="220" y="420" as="targetPoint" />
          </mxGeometry>
        </mxCell>
        <mxCell id="4bqVrAKgck0tM7LBI-FJ-25" value="Yes" style="edgeLabel;html=1;align=center;verticalAlign=middle;resizable=0;points=[];" vertex="1" connectable="0" parent="4bqVrAKgck0tM7LBI-FJ-24">
          <mxGeometry x="-0.1288" y="-1" relative="1" as="geometry">
            <mxPoint as="offset" />
          </mxGeometry>
        </mxCell>
        <mxCell id="4bqVrAKgck0tM7LBI-FJ-15" value="Calculated all events?" style="strokeWidth=2;html=1;shape=mxgraph.flowchart.decision;whiteSpace=wrap;" vertex="1" parent="WIyWlLk6GJQsqaUBKTNV-1">
          <mxGeometry x="165" y="300" width="110" height="80" as="geometry" />
        </mxCell>
        <mxCell id="4bqVrAKgck0tM7LBI-FJ-16" style="edgeStyle=orthogonalEdgeStyle;rounded=0;orthogonalLoop=1;jettySize=auto;html=1;exitX=0.5;exitY=1;exitDx=0;exitDy=0;entryX=0.5;entryY=0;entryDx=0;entryDy=0;entryPerimeter=0;" edge="1" parent="WIyWlLk6GJQsqaUBKTNV-1" source="4bqVrAKgck0tM7LBI-FJ-11" target="4bqVrAKgck0tM7LBI-FJ-15">
          <mxGeometry relative="1" as="geometry" />
        </mxCell>
      </root>
    </mxGraphModel>
  </diagram>
</mxfile>
